<svg width="10" height="7" viewBox="0 0 10 7" fill="none" xmlns="http://www.w3.org/2000/svg">
<path d="M9.20698 0.293C9.39445 0.480528 9.49977 0.734836 9.49977 1C9.49977 1.26516 9.39445 1.51947 9.20698 1.707L4.20698 6.707C4.01945 6.89447 3.76514 6.99979 3.49998 6.99979C3.23482 6.99979 2.98051 6.89447 2.79298 6.707L0.79298 4.707C0.610822 4.5184 0.510027 4.2658 0.512306 4.0036C0.514584 3.7414 0.619753 3.49059 0.805161 3.30518C0.990569 3.11977 1.24138 3.0146 1.50358 3.01233C1.76578 3.01005 2.01838 3.11084 2.20698 3.293L3.49998 4.586L7.79298 0.293C7.98051 0.105529 8.23482 0.000213623 8.49998 0.000213623C8.76514 0.000213623 9.01945 0.105529 9.20698 0.293Z" fill="white"/>
</svg>
